<svg
  xmlns="http://www.w3.org/2000/svg"
  fill="currentColor"
  viewBox="0 0 24 24"
  className="sm:w-5 sm:h-5 md:w-6 md:h-6 lg:w-7 lg:h-7 text-iconColor"
>
  <path d="M7 18c-.667 0-1.333.667-1.333 1.333S6.333 21 7 21s1.333-.667 1.333-1.333S7.667 18 7 18zm10 0c-.667 0-1.333.667-1.333 1.333S16.333 21 17 21s1.333-.667 1.333-1.333S17.667 18 17 18zm1.917-4.778L21 5.333c.056-.333-.111-.667-.444-.667H6.111L5.222 2.333C5.167 2.222 5.056 2 4.889 2H1.333c-.333 0-.333.444 0 .444H4.111L5.333 6.5l1.222 9.222c.056.333.389.611.722.611h10.667c.333 0 .611-.167.667-.5l1.611-7.444c.056-.333-.167-.611-.5-.611z" />
</svg>

